<svg width="335.786" height="111.001" viewBox="0 0 335.786 111.001" xmlns="http://www.w3.org/2000/svg"><g id="svgGroup" stroke-linecap="round" fill-rule="evenodd" font-size="9pt" stroke="#7209b7" stroke-width="0.5mm" fill="#7209b7" style="stroke:#7209b7;stroke-width:0.5mm;fill:#7209b7"><path d="M 90.536 79.95 L 94.136 56.55 Q 95.786 46.95 100.661 39.975 Q 105.536 33 113.336 29.25 A 38.223 38.223 0 0 1 126.622 25.679 A 46.34 46.34 0 0 1 130.736 25.5 A 41.509 41.509 0 0 1 139.076 26.285 Q 144.084 27.313 147.904 29.687 A 22.06 22.06 0 0 1 152.186 33.15 Q 159.536 40.8 157.736 54 L 145.886 54 A 27.545 27.545 0 0 0 146.026 51.98 Q 146.248 44.885 142.361 40.8 A 13.927 13.927 0 0 0 136.41 37.172 Q 134.177 36.453 131.463 36.24 A 30.36 30.36 0 0 0 129.086 36.15 A 26.65 26.65 0 0 0 121.844 37.089 A 20.667 20.667 0 0 0 113.711 41.475 A 21.617 21.617 0 0 0 107.756 50.241 A 31.081 31.081 0 0 0 106.136 56.55 L 102.386 79.95 A 32.461 32.461 0 0 0 102.079 82.599 Q 101.811 86.275 102.531 89.25 A 14.078 14.078 0 0 0 105.311 94.95 A 13.991 13.991 0 0 0 112.458 99.526 Q 114.777 100.196 117.571 100.321 A 29.305 29.305 0 0 0 118.886 100.35 A 28.127 28.127 0 0 0 125.648 99.578 A 20.531 20.531 0 0 0 133.736 95.625 A 21.065 21.065 0 0 0 140.32 86.236 A 28.042 28.042 0 0 0 141.386 82.5 L 153.236 82.5 A 35.976 35.976 0 0 1 149.169 93.985 A 31.686 31.686 0 0 1 141.011 103.35 A 36.042 36.042 0 0 1 123.05 110.634 A 47.277 47.277 0 0 1 117.086 111 Q 108.427 111 102.27 107.949 A 24.092 24.092 0 0 1 100.961 107.25 Q 94.436 103.5 91.736 96.525 Q 89.036 89.55 90.536 79.95 Z M 0.536 79.95 L 4.136 56.55 A 44.021 44.021 0 0 1 7.012 46.702 A 36.844 36.844 0 0 1 10.661 40.125 Q 15.536 33.15 23.111 29.325 A 35.691 35.691 0 0 1 35.329 25.77 A 44.475 44.475 0 0 1 40.286 25.5 A 39.76 39.76 0 0 1 47.294 26.084 Q 51.264 26.795 54.504 28.373 A 22.941 22.941 0 0 1 56.261 29.325 Q 62.636 33.15 65.336 40.125 A 24.923 24.923 0 0 1 66.864 46.684 Q 67.202 50.078 66.767 53.912 A 44.449 44.449 0 0 1 66.386 56.55 L 64.136 71.1 L 13.586 71.1 L 12.236 79.95 A 38.099 38.099 0 0 0 11.911 82.86 Q 11.402 89.987 14.108 94.463 A 13.06 13.06 0 0 0 14.786 95.475 Q 18.31 100.239 25.922 100.858 A 29.192 29.192 0 0 0 28.286 100.95 Q 35.252 100.95 40.202 98.532 A 19.343 19.343 0 0 0 41.561 97.8 Q 46.886 94.65 49.136 88.65 L 60.986 88.65 Q 58.886 95.55 54.011 100.575 A 32.407 32.407 0 0 1 43.238 107.864 A 37.581 37.581 0 0 1 42.161 108.3 A 40.001 40.001 0 0 1 31.951 110.723 A 49.725 49.725 0 0 1 26.636 111 A 39.87 39.87 0 0 1 19.9 110.462 Q 16.021 109.797 12.852 108.308 A 22.522 22.522 0 0 1 10.736 107.175 Q 4.436 103.35 1.736 96.3 A 26.422 26.422 0 0 1 0.122 89.142 Q -0.176 85.765 0.253 81.998 A 44.524 44.524 0 0 1 0.536 79.95 Z M 333.986 109.5 L 306.686 109.5 A 29.599 29.599 0 0 1 300.557 108.907 Q 294.395 107.602 290.786 103.425 Q 285.973 97.856 286.833 88.695 A 33.893 33.893 0 0 1 287.036 87 L 299.186 10.8 L 273.986 10.8 L 275.786 0 L 312.836 0 L 299.036 87 Q 298.538 90.07 299.073 92.382 A 7.945 7.945 0 0 0 300.611 95.625 A 7.778 7.778 0 0 0 304.528 98.193 Q 305.837 98.589 307.425 98.676 A 16.712 16.712 0 0 0 308.336 98.7 L 335.786 98.7 L 333.986 109.5 Z M 180.536 80.55 L 184.436 56.1 A 47.373 47.373 0 0 1 186.667 47.306 A 36.894 36.894 0 0 1 190.361 39.825 A 32.29 32.29 0 0 1 198.264 31.317 A 30.51 30.51 0 0 1 201.461 29.25 A 29.525 29.525 0 0 1 214.726 25.539 A 35.287 35.287 0 0 1 216.386 25.5 Q 224.098 25.5 229.061 28.665 A 16.255 16.255 0 0 1 232.136 31.2 Q 237.536 36.9 236.036 46.5 L 233.636 41.55 L 236.486 41.55 L 238.736 27 L 250.586 27 L 237.536 109.5 L 225.686 109.5 L 227.936 94.95 L 224.936 94.95 L 229.136 90 Q 227.636 99.75 220.361 105.375 Q 213.086 111 202.736 111 A 28.976 28.976 0 0 1 195.339 110.113 A 19.324 19.324 0 0 1 184.361 102.75 Q 178.927 95.371 180.153 83.432 A 50.534 50.534 0 0 1 180.536 80.55 Z M 230.336 79.95 L 233.936 56.55 Q 234.878 50.984 233.913 46.811 A 14.106 14.106 0 0 0 231.386 41.325 Q 227.37 36.091 219.105 35.861 A 27.64 27.64 0 0 0 218.336 35.85 A 24.553 24.553 0 0 0 211.436 36.776 A 19.268 19.268 0 0 0 203.561 41.25 A 22.398 22.398 0 0 0 198.269 48.982 Q 197.013 51.941 196.322 55.516 A 40.675 40.675 0 0 0 196.136 56.55 L 192.536 79.95 A 36.99 36.99 0 0 0 192.211 82.817 Q 191.643 90.66 195.086 95.25 Q 199.136 100.65 208.136 100.65 A 23.569 23.569 0 0 0 215.555 99.526 A 19.919 19.919 0 0 0 222.911 95.175 A 22.492 22.492 0 0 0 228.662 86.47 A 32.152 32.152 0 0 0 230.336 79.95 Z M 55.136 61.8 L 53.786 63.15 L 54.686 56.55 A 37.542 37.542 0 0 0 55.058 53.567 Q 55.671 46.166 52.709 41.633 A 12.763 12.763 0 0 0 52.286 41.025 Q 48.762 36.261 41.149 35.642 A 29.192 29.192 0 0 0 38.786 35.55 A 27.409 27.409 0 0 0 32.113 36.32 A 19.562 19.562 0 0 0 23.336 41.025 A 22.615 22.615 0 0 0 17.989 48.853 Q 16.535 52.291 15.836 56.55 L 15.086 61.8 L 55.136 61.8 Z" vector-effect="non-scaling-stroke"/></g></svg>