<svg width="226.139" height="74.001" viewBox="0 0 226.139 74.001" xmlns="http://www.w3.org/2000/svg"><g id="svgGroup" stroke-linecap="round" fill-rule="evenodd" font-size="9pt" stroke="#fab387" stroke-width="0.25mm" fill="#fab387" style="stroke:#fab387;stroke-width:0.25mm;fill:#fab387"><path d="M 60.339 52.7 L 62.539 38.3 A 28.818 28.818 0 0 1 64.517 31.488 A 24.147 24.147 0 0 1 67.139 26.9 Q 70.639 22.1 76.139 19.55 A 27.623 27.623 0 0 1 85.12 17.159 A 33.861 33.861 0 0 1 88.439 17 A 30.22 30.22 0 0 1 94.163 17.508 Q 97.508 18.154 100.102 19.621 A 15.429 15.429 0 0 1 103.489 22.2 Q 108.639 27.4 107.539 36.4 L 96.839 36.4 A 14.61 14.61 0 0 0 96.89 35.406 Q 96.957 31.418 94.639 29.1 Q 92.039 26.5 86.839 26.5 A 16.217 16.217 0 0 0 82.774 26.984 A 11.941 11.941 0 0 0 77.839 29.55 A 12.478 12.478 0 0 0 74.422 34.504 A 17.906 17.906 0 0 0 73.439 38.2 L 71.139 52.7 Q 70.239 58.3 72.789 61.4 Q 75.339 64.5 80.839 64.5 A 17.115 17.115 0 0 0 84.697 64.087 A 12.233 12.233 0 0 0 89.439 61.9 A 11.864 11.864 0 0 0 93.397 56.423 A 15.644 15.644 0 0 0 93.939 54.6 L 104.739 54.6 A 24.534 24.534 0 0 1 101.574 62.816 A 22.156 22.156 0 0 1 96.089 68.8 A 25.337 25.337 0 0 1 84.241 73.654 A 33.664 33.664 0 0 1 79.339 74 A 30.095 30.095 0 0 1 74.215 73.587 Q 71.333 73.089 68.958 71.989 A 17.601 17.601 0 0 1 67.889 71.45 Q 63.239 68.9 61.289 64.05 A 17.917 17.917 0 0 1 60.108 59.127 Q 59.809 56.145 60.339 52.7 Z M 0.339 52.7 L 2.539 38.3 Q 3.639 31.8 7.139 27.05 Q 10.639 22.3 15.989 19.65 Q 21.339 17 28.039 17 Q 33.743 17 37.829 18.865 A 16.357 16.357 0 0 1 39.339 19.65 Q 43.839 22.3 45.789 27.05 Q 47.739 31.8 46.639 38.3 L 45.139 48.1 L 11.439 48.1 L 10.739 52.7 A 23.765 23.765 0 0 0 10.547 54.407 Q 10.187 59.264 12.239 62 A 7.289 7.289 0 0 0 15.618 64.449 Q 17.63 65.2 20.439 65.2 A 22.021 22.021 0 0 0 23.716 64.97 Q 26.277 64.584 28.189 63.55 Q 31.239 61.9 32.439 58.7 L 43.139 58.7 Q 41.639 63.4 38.189 66.8 Q 34.739 70.2 29.789 72.1 A 28.819 28.819 0 0 1 21.83 73.881 A 34.573 34.573 0 0 1 18.939 74 A 28.082 28.082 0 0 1 14.04 73.596 Q 10.481 72.965 7.739 71.35 Q 3.239 68.7 1.289 63.9 A 17.597 17.597 0 0 1 0.102 58.978 Q -0.128 56.648 0.16 54.038 A 29.937 29.937 0 0 1 0.339 52.7 Z M 224.539 73 L 206.339 73 A 20.499 20.499 0 0 1 201.796 72.528 Q 197.39 71.527 194.739 68.4 A 12.489 12.489 0 0 1 191.87 61.641 Q 191.636 59.678 191.884 57.441 A 23.842 23.842 0 0 1 192.039 56.3 L 199.339 9.8 L 182.739 9.8 L 184.339 0 L 211.739 0 L 202.839 56.3 A 10.608 10.608 0 0 0 202.735 57.22 Q 202.652 58.439 202.9 59.435 A 4.859 4.859 0 0 0 203.839 61.35 A 4.801 4.801 0 0 0 206.493 62.991 Q 207.279 63.187 208.214 63.199 A 9.577 9.577 0 0 0 208.339 63.2 L 226.139 63.2 L 224.539 73 Z M 120.339 53.3 L 122.739 37.8 A 32.505 32.505 0 0 1 124.116 32.124 A 24.555 24.555 0 0 1 126.739 26.7 Q 129.739 22.1 134.189 19.55 A 19.41 19.41 0 0 1 143.117 17.022 A 23.113 23.113 0 0 1 144.139 17 A 19.67 19.67 0 0 1 148.062 17.366 Q 150.41 17.845 152.201 18.948 A 10.302 10.302 0 0 1 154.389 20.75 A 9.804 9.804 0 0 1 156.889 26.222 Q 157.115 27.9 156.901 29.844 A 20.1 20.1 0 0 1 156.739 31 L 154.839 28.5 L 157.239 28.5 L 158.739 18 L 169.439 18 L 160.739 73 L 150.139 73 L 151.839 62.5 L 149.539 62.5 L 152.239 60 A 18.162 18.162 0 0 1 150.513 65.326 A 15.229 15.229 0 0 1 146.489 70.25 A 16.802 16.802 0 0 1 137.961 73.814 A 22.301 22.301 0 0 1 135.039 74 A 18.987 18.987 0 0 1 130.105 73.397 A 12.874 12.874 0 0 1 122.789 68.4 A 14.973 14.973 0 0 1 120.261 62.434 Q 119.654 59.353 120.029 55.594 A 34.382 34.382 0 0 1 120.339 53.3 Z M 153.239 52.7 L 155.439 38.3 A 19.309 19.309 0 0 0 155.665 36.633 Q 155.864 34.417 155.442 32.642 A 7.971 7.971 0 0 0 153.989 29.55 Q 151.683 26.585 146.939 26.411 A 16.391 16.391 0 0 0 146.339 26.4 A 15.011 15.011 0 0 0 142.504 26.865 A 11.052 11.052 0 0 0 137.739 29.45 A 12.557 12.557 0 0 0 134.85 33.537 Q 134.08 35.231 133.631 37.308 A 24.073 24.073 0 0 0 133.439 38.3 L 131.239 52.7 Q 130.31 58.09 132.317 61.105 A 6.92 6.92 0 0 0 132.639 61.55 Q 134.749 64.231 139.1 64.555 A 16.686 16.686 0 0 0 140.339 64.6 A 13.617 13.617 0 0 0 144.724 63.919 A 11.654 11.654 0 0 0 148.889 61.45 A 13.073 13.073 0 0 0 152.291 56.335 A 18.53 18.53 0 0 0 153.239 52.7 Z M 36.639 40.7 L 35.739 41.6 L 36.239 38.2 Q 37.239 32.2 34.889 28.9 A 7.213 7.213 0 0 0 31.353 26.301 Q 30.083 25.842 28.5 25.684 A 17.685 17.685 0 0 0 26.739 25.6 A 16.519 16.519 0 0 0 22.796 26.045 A 11.481 11.481 0 0 0 17.489 28.9 Q 14.039 32.2 13.039 38.3 L 12.639 40.8 L 36.639 40.7 Z" vector-effect="non-scaling-stroke"/></g></svg>