<svg width="221.524" height="74.001" viewBox="0 0 221.524 74.001" xmlns="http://www.w3.org/2000/svg"><g id="svgGroup" stroke-linecap="round" fill-rule="evenodd" font-size="9pt" stroke="#7209b7" stroke-width="0.4mm" fill="#7209b7" style="stroke:#7209b7;stroke-width:0.4mm;fill:#7209b7"><path d="M 60.324 54 L 63.024 37 A 28.077 28.077 0 0 1 64.679 30.984 A 23.019 23.019 0 0 1 67.124 26.45 Q 70.224 22 75.074 19.5 Q 79.924 17 85.924 17 Q 95.024 17 99.574 22.15 A 13.749 13.749 0 0 1 102.887 29.571 Q 103.2 31.856 102.925 34.492 A 27.365 27.365 0 0 1 102.724 36 L 97.724 36 A 21.459 21.459 0 0 0 97.941 34.187 Q 98.139 31.562 97.577 29.444 A 9.697 9.697 0 0 0 95.424 25.4 Q 92.4 22.021 86.609 21.647 A 23.041 23.041 0 0 0 85.124 21.6 Q 78.324 21.6 73.724 25.65 A 16.449 16.449 0 0 0 69.123 32.559 A 23.3 23.3 0 0 0 68.024 37 L 65.324 54 Q 64.224 61.2 67.524 65.3 A 10.461 10.461 0 0 0 73.016 68.823 Q 74.785 69.319 76.917 69.389 A 21.659 21.659 0 0 0 77.624 69.4 A 20.328 20.328 0 0 0 83.028 68.715 A 15.668 15.668 0 0 0 89.074 65.55 A 16.036 16.036 0 0 0 94.078 57.795 A 21.496 21.496 0 0 0 94.724 55 L 99.724 55 A 24.286 24.286 0 0 1 97.357 62.376 A 20.791 20.791 0 0 1 92.124 68.85 A 22.157 22.157 0 0 1 80.401 73.788 A 29.312 29.312 0 0 1 76.824 74 A 24.344 24.344 0 0 1 72.352 73.611 Q 69.21 73.024 66.774 71.55 Q 62.724 69.1 61.074 64.6 A 17.399 17.399 0 0 1 60.133 60.49 Q 59.87 58.088 60.155 55.342 A 31.506 31.506 0 0 1 60.324 54 Z M 0.324 54 L 3.024 37 A 28.627 28.627 0 0 1 4.665 30.984 A 23.281 23.281 0 0 1 7.074 26.45 Q 10.124 22 14.924 19.5 Q 19.724 17 25.824 17 Q 30.85 17 34.383 18.697 A 13.505 13.505 0 0 1 35.824 19.5 Q 39.724 22 41.374 26.45 A 16.402 16.402 0 0 1 42.28 30.362 Q 42.535 32.667 42.254 35.307 A 30.336 30.336 0 0 1 42.024 37 L 40.524 46.5 L 6.524 46.5 L 5.324 54 Q 4.706 58.045 5.414 61.143 A 11.32 11.32 0 0 0 7.324 65.4 A 9.733 9.733 0 0 0 12.465 68.933 Q 14.092 69.433 16.068 69.558 A 21.476 21.476 0 0 0 17.424 69.6 A 19.478 19.478 0 0 0 22.333 69.007 A 15.504 15.504 0 0 0 27.074 66.9 A 17.54 17.54 0 0 0 33.042 60.08 A 20.959 20.959 0 0 0 33.324 59.5 L 38.324 59.5 Q 36.624 63.9 33.524 67.2 Q 30.424 70.5 26.174 72.25 Q 21.924 74 16.724 74 A 25.129 25.129 0 0 1 12.444 73.655 Q 9.961 73.226 7.936 72.261 A 14.239 14.239 0 0 1 6.624 71.55 Q 2.624 69.1 1.024 64.6 Q -0.576 60.1 0.324 54 Z M 220.824 73 L 203.324 73 Q 199.03 73 196.214 71.562 A 9.048 9.048 0 0 1 193.524 69.5 A 9.068 9.068 0 0 1 191.47 65.347 Q 191.022 63.306 191.266 60.759 A 22.181 22.181 0 0 1 191.424 59.5 L 200.124 4.5 L 182.624 4.5 L 183.424 0 L 205.924 0 L 196.424 59.5 Q 195.724 63.9 197.674 66.2 A 5.92 5.92 0 0 0 200.23 67.923 Q 201.224 68.284 202.457 68.419 A 14.388 14.388 0 0 0 204.024 68.5 L 221.524 68.5 L 220.824 73 Z M 120.324 54.1 L 123.024 37 Q 124.024 31 126.974 26.5 Q 129.924 22 134.424 19.5 A 20.069 20.069 0 0 1 143.698 17.011 A 23.774 23.774 0 0 1 144.424 17 Q 150.429 17 154.138 19.852 A 12.028 12.028 0 0 1 155.524 21.1 A 10.958 10.958 0 0 1 158.528 28.081 Q 158.662 29.914 158.324 32 L 156.524 25.5 L 158.324 25.5 L 159.524 18 L 164.524 18 L 155.824 73 L 150.824 73 L 152.024 65.5 L 149.224 65.5 L 154.024 59 Q 153.024 65.8 147.774 69.9 A 19.33 19.33 0 0 1 136.657 73.964 A 24.367 24.367 0 0 1 135.324 74 A 19.545 19.545 0 0 1 130.384 73.413 A 13.046 13.046 0 0 1 123.024 68.55 Q 118.924 63.1 120.324 54.1 Z M 153.824 54.1 L 156.524 37 A 27.525 27.525 0 0 0 156.76 34.866 Q 157.169 28.981 154.574 25.45 Q 151.524 21.3 144.724 21.3 A 17.78 17.78 0 0 0 139.159 22.137 A 14.909 14.909 0 0 0 133.574 25.45 A 16.906 16.906 0 0 0 129.32 31.907 A 24.306 24.306 0 0 0 128.024 37 L 125.324 54.1 Q 124.224 61.4 127.274 65.55 Q 130.151 69.464 136.275 69.687 A 20.656 20.656 0 0 0 137.024 69.7 A 18.274 18.274 0 0 0 142.479 68.92 A 14.877 14.877 0 0 0 148.274 65.55 A 17.049 17.049 0 0 0 152.637 58.843 A 24.137 24.137 0 0 0 153.824 54.1 Z M 37.324 42.2 L 36.024 43.1 L 37.024 37 A 26.044 26.044 0 0 0 37.26 34.92 Q 37.669 29.174 35.074 25.6 A 9.599 9.599 0 0 0 29.927 22.041 Q 27.819 21.4 25.124 21.4 Q 18.124 21.4 13.624 25.55 Q 9.124 29.7 8.024 37 L 7.224 42.2 L 37.324 42.2 Z" vector-effect="non-scaling-stroke"/></g></svg>